<?xml version="1.0" standalone="no"?>
<!DOCTYPE svg PUBLIC "-//W3C//DTD SVG 20010904//EN"
 "http://www.w3.org/TR/2001/REC-SVG-20010904/DTD/svg10.dtd">
<svg version="1.0" xmlns="http://www.w3.org/2000/svg"
 width="1280.000000pt" height="986.000000pt" viewBox="0 0 1280.000000 986.000000"
 preserveAspectRatio="xMidYMid meet">
<metadata>
Created by potrace 1.15, written by Peter Selinger 2001-2017
</metadata>
<g transform="translate(0.000000,986.000000) scale(0.100000,-0.100000)"
fill="#000000" stroke="none">
<path d="M7260 9499 c-294 -31 -505 -103 -723 -249 -265 -177 -483 -475 -551
-750 -29 -121 -37 -204 -46 -510 -7 -257 -12 -317 -29 -383 -42 -158 -120
-271 -368 -527 -184 -190 -242 -235 -418 -320 -212 -103 -427 -173 -610 -200
-44 -6 -285 -15 -535 -20 -469 -10 -612 -20 -805 -61 -288 -60 -582 -196 -820
-378 -100 -76 -250 -227 -403 -406 -81 -93 -203 -229 -273 -302 -161 -168
-299 -324 -428 -486 -292 -368 -361 -507 -471 -946 -30 -119 -67 -224 -200
-565 -70 -180 -123 -376 -141 -520 -7 -63 -10 -163 -6 -275 7 -211 28 -308
113 -524 184 -463 282 -580 639 -752 332 -160 617 -251 917 -292 190 -26 767
-26 943 0 282 42 508 119 848 289 180 90 281 121 397 121 117 1 194 -17 405
-95 306 -114 370 -134 920 -297 545 -161 989 -244 1625 -305 529 -51 1721 -57
2105 -11 259 31 693 96 840 126 452 90 775 249 1036 509 187 186 262 353 263
580 0 131 -16 206 -68 315 -76 160 -198 276 -441 420 -184 110 -237 152 -269
217 -45 89 -30 170 45 252 48 52 105 94 291 210 421 264 837 707 1014 1081 82
173 109 333 101 595 -4 143 -10 193 -30 270 -44 169 -112 292 -232 419 -129
136 -257 213 -495 296 -281 98 -363 138 -760 370 -459 267 -683 362 -1212 509
-156 43 -244 85 -305 145 -82 81 -109 183 -80 298 9 34 55 138 102 230 134
262 168 397 167 663 0 352 -90 561 -356 826 -260 260 -520 385 -893 429 -142
17 -653 19 -803 4z"/>
</g>
</svg>
